<svg id="vector" xmlns="http://www.w3.org/2000/svg" viewBox="0 0 650 300"><defs><style>.cls-1{fill:#1b5e92;}.cls-2{fill:#063f65;}.cls-3{fill:#fc0;}.cls-4{fill:#4cc0e7;}.cls-5{fill:#f8ffff;}.cls-6{fill:#fff;}</style></defs><title>Artboard 1</title><polygon class="cls-1" points="0 277.65 0 252.16 6.61 252.16 6.61 204.42 15.53 204.42 15.53 175.09 29.44 164.16 29.44 141.22 59.62 141.22 59.62 203.89 66.44 203.89 66.44 251.89 69.85 251.89 69.85 157.22 76.41 157.22 76.41 150.02 80.35 150.02 80.35 104.42 85.34 104.42 85.34 96.96 90.06 96.96 90.06 73.22 96.36 73.22 96.36 96.96 100.82 96.96 100.82 103.89 106.07 103.89 106.07 149.76 110 149.76 110 156.42 116.3 156.42 116.3 262.71 0 277.65"/><rect class="cls-2" x="49.97" y="153.41" width="4.01" height="4.01"/><rect class="cls-3" x="49.97" y="161.41" width="4.01" height="4.01"/><rect class="cls-4" x="49.97" y="170.41" width="4.01" height="4.01"/><rect class="cls-2" x="49.97" y="179.41" width="4.01" height="4.01"/><rect class="cls-2" x="49.97" y="197.41" width="4.01" height="4.01"/><rect class="cls-2" x="49.97" y="205.41" width="4.01" height="4.01"/><rect class="cls-3" x="49.97" y="214.41" width="4.01" height="4.01"/><rect class="cls-2" x="49.97" y="223.41" width="4.01" height="4.01"/><rect class="cls-2" x="49.97" y="232.41" width="4.01" height="4.01"/><rect class="cls-3" x="49.97" y="240.41" width="4.01" height="4.01"/><rect class="cls-2" x="49.97" y="249.41" width="4.01" height="4.01"/><rect class="cls-4" x="49.97" y="258.41" width="4.01" height="4.01"/><rect class="cls-2" x="49.97" y="266.41" width="4.01" height="4.01"/><rect class="cls-2" x="41.97" y="232.41" width="4.01" height="4.01"/><rect class="cls-4" x="41.97" y="240.41" width="4.01" height="4.01"/><rect class="cls-2" x="41.97" y="249.41" width="4.01" height="4.01"/><rect class="cls-3" x="41.97" y="258.41" width="4.01" height="4.01"/><rect class="cls-2" x="41.97" y="266.41" width="4.01" height="4.01"/><rect class="cls-3" x="41.97" y="188.41" width="4.01" height="4.01"/><rect class="cls-4" x="41.97" y="196.41" width="4.01" height="4.01"/><rect class="cls-2" x="41.97" y="205.41" width="4.01" height="4.01"/><rect class="cls-2" x="41.97" y="214.41" width="4.01" height="4.01"/><rect class="cls-2" x="41.97" y="162.41" width="4.01" height="4.01"/><rect class="cls-2" x="41.97" y="171.41" width="4.01" height="4.01"/><rect class="cls-2" x="41.97" y="179.41" width="4.01" height="4.01"/><rect class="cls-2" x="84.95" y="142.38" width="17" height="3.1"/><rect class="cls-2" x="84.95" y="150.38" width="17" height="3.1"/><rect class="cls-2" x="84.95" y="157.38" width="17" height="3.1"/><rect class="cls-3" x="84.95" y="111.38" width="17" height="3.1"/><rect class="cls-3" x="84.95" y="119.38" width="17" height="3.1"/><rect class="cls-3" x="84.95" y="126.38" width="17" height="3.1"/><rect class="cls-2" x="84.95" y="165.38" width="17" height="3.1"/><rect class="cls-2" x="84.95" y="211.38" width="17" height="3.1"/><rect class="cls-2" x="84.95" y="219.38" width="17" height="3.1"/><rect class="cls-2" x="84.95" y="226.38" width="17" height="3.1"/><rect class="cls-2" x="84.95" y="234.38" width="17" height="3.1"/><rect class="cls-2" x="84.95" y="242.38" width="17" height="3.1"/><rect class="cls-2" x="84.95" y="250.38" width="17" height="3.1"/><rect class="cls-4" x="84.95" y="173.38" width="17" height="3.1"/><rect class="cls-4" x="84.95" y="180.38" width="17" height="3.1"/><rect class="cls-4" x="84.95" y="188.38" width="17" height="3.1"/><rect class="cls-4" x="84.95" y="196.38" width="17" height="3.1"/><polygon class="cls-1" points="118.93 262.37 118.93 177.39 135.72 166.47 135.72 126.76 164.06 126.76 164.06 143.81 184.8 143.81 184.8 253.91 118.93 262.37"/><rect class="cls-3" x="158.01" y="155.34" width="20.01" height="6.04"/><rect class="cls-4" x="158.01" y="169.34" width="20.01" height="6.04"/><rect class="cls-4" x="158.01" y="183.34" width="20.01" height="6.04"/><rect class="cls-4" x="158.01" y="197.34" width="20.01" height="6.04"/><rect class="cls-2" x="158.01" y="210.34" width="20.01" height="6.04"/><rect class="cls-2" x="158.01" y="224.34" width="20.01" height="6.04"/><rect class="cls-2" x="158.01" y="238.34" width="20.01" height="6.04"/><path class="cls-2" d="M158,257.35v-5h20v2.44Z"/><polygon class="cls-1" points="439.03 226.3 445.99 226.3 445.99 212.18 451.9 212.18 451.9 168.18 456.88 168.18 456.88 141.09 461.14 141.09 461.14 168.18 463.01 168.18 463.01 123.14 466.22 123.14 466.22 168.07 470.89 168.07 470.89 212.08 478.99 212.08 478.99 226.3 486.88 226.3 486.88 150.33 493.83 141.09 493.83 113.17 515 113.17 515 75.08 531.82 75.08 531.82 105.91 541.05 122.31 541.05 226.3 548.84 226.3 548.84 167.24 553.93 167.37 553.93 164.43 557.96 164.34 557.96 167.43 558.93 167.43 558.93 121.37 565.99 121.37 565.99 94.41 578.96 94.41 578.96 121.37 586.02 121.37 586.02 167.43 594.96 167.43 594.96 156.43 604.02 156.43 604.02 150.37 639.98 150.37 639.98 156.43 650 156.43 650 277.65 438.84 250.52 439.03 226.3"/><rect class="cls-3" x="464.05" y="175.35" width="2.9" height="6.05"/><rect class="cls-5" x="459.05" y="175.35" width="2.9" height="6.05"/><rect class="cls-2" x="464.05" y="185.35" width="2.9" height="6.05"/><rect class="cls-2" x="459.05" y="185.35" width="2.9" height="6.05"/><rect class="cls-3" x="455.05" y="185.35" width="2.9" height="6.05"/><rect class="cls-4" x="459.05" y="195.35" width="2.9" height="6.05"/><rect class="cls-2" x="455.05" y="195.35" width="2.9" height="6.05"/><rect class="cls-5" x="464.05" y="205.35" width="2.9" height="6.05"/><rect class="cls-2" x="459.05" y="205.35" width="2.9" height="6.05"/><rect class="cls-2" x="455.05" y="205.35" width="2.9" height="6.05"/><rect class="cls-2" x="464.05" y="215.35" width="2.9" height="6.05"/><rect class="cls-3" x="459.05" y="215.35" width="2.9" height="6.05"/><rect class="cls-4" x="464.05" y="225.35" width="2.9" height="6.05"/><rect class="cls-2" x="459.05" y="225.35" width="2.9" height="6.05"/><rect class="cls-2" x="455.05" y="225.35" width="2.9" height="6.05"/><rect class="cls-2" x="464.05" y="235.35" width="2.9" height="6.05"/><rect class="cls-2" x="459.05" y="235.35" width="2.9" height="6.05"/><rect class="cls-5" x="455.05" y="235.35" width="2.9" height="6.05"/><rect class="cls-4" x="459.05" y="245.35" width="2.9" height="6.05"/><rect class="cls-3" x="455.05" y="245.35" width="2.9" height="6.05"/><rect class="cls-4" x="511" y="121.4" width="3" height="4.96"/><rect class="cls-4" x="507" y="121.4" width="3" height="4.96"/><rect class="cls-4" x="502" y="121.4" width="3" height="4.96"/><rect class="cls-5" x="511" y="129.4" width="3" height="4.96"/><rect class="cls-4" x="502" y="129.4" width="3" height="4.96"/><rect class="cls-3" x="498" y="129.4" width="3" height="4.96"/><rect class="cls-4" x="511" y="137.4" width="3" height="4.96"/><rect class="cls-4" x="507" y="137.4" width="3" height="4.96"/><rect class="cls-4" x="502" y="137.4" width="3" height="4.96"/><rect class="cls-4" x="498" y="137.4" width="3" height="4.96"/><rect class="cls-4" x="511" y="145.4" width="3" height="4.96"/><rect class="cls-4" x="507" y="145.4" width="3" height="4.96"/><rect class="cls-4" x="498" y="145.4" width="3" height="4.96"/><rect class="cls-4" x="511" y="153.4" width="3" height="4.96"/><rect class="cls-5" x="507" y="153.4" width="3" height="4.96"/><rect class="cls-4" x="502" y="153.4" width="3" height="4.96"/><rect class="cls-4" x="498" y="153.4" width="3" height="4.96"/><rect class="cls-4" x="511" y="162.4" width="3" height="4.96"/><rect class="cls-4" x="507" y="162.4" width="3" height="4.96"/><rect class="cls-4" x="502" y="162.4" width="3" height="4.96"/><rect class="cls-3" x="498" y="162.4" width="3" height="4.96"/><rect class="cls-4" x="511" y="170.4" width="3" height="4.96"/><rect class="cls-4" x="507" y="170.4" width="3" height="4.96"/><rect class="cls-4" x="502" y="170.4" width="3" height="4.96"/><rect class="cls-4" x="498" y="170.4" width="3" height="4.96"/><rect class="cls-4" x="511" y="178.4" width="3" height="4.96"/><rect class="cls-4" x="507" y="178.4" width="3" height="4.96"/><rect class="cls-5" x="502" y="178.4" width="3" height="4.96"/><rect class="cls-4" x="511" y="186.4" width="3" height="4.96"/><rect class="cls-4" x="507" y="186.4" width="3" height="4.96"/><rect class="cls-4" x="502" y="186.4" width="3" height="4.96"/><rect class="cls-4" x="498" y="186.4" width="3" height="4.96"/><rect class="cls-4" x="507" y="194.4" width="3" height="4.96"/><rect class="cls-4" x="502" y="194.4" width="3" height="4.96"/><rect class="cls-4" x="498" y="194.4" width="3" height="4.96"/><rect class="cls-4" x="511" y="203.4" width="3" height="4.96"/><rect class="cls-5" x="507" y="203.4" width="3" height="4.96"/><rect class="cls-4" x="502" y="203.4" width="3" height="4.96"/><rect class="cls-4" x="498" y="203.4" width="3" height="4.96"/><rect class="cls-4" x="511" y="211.4" width="3" height="4.96"/><rect class="cls-4" x="507" y="211.4" width="3" height="4.96"/><rect class="cls-4" x="502" y="211.4" width="3" height="4.96"/><rect class="cls-4" x="498" y="211.4" width="3" height="4.96"/><rect class="cls-3" x="511" y="219.4" width="3" height="4.96"/><rect class="cls-4" x="507" y="219.4" width="3" height="4.96"/><rect class="cls-5" x="498" y="219.4" width="3" height="4.96"/><rect class="cls-2" x="497" y="243.4" width="4.96" height="4.96"/><rect class="cls-2" x="490" y="243.4" width="4.96" height="4.96"/><rect class="cls-2" x="490" y="249.4" width="4.96" height="4.96"/><polyline class="cls-3" points="533.83 262.73 533.83 122.39 536.95 122.39 536.95 263.13"/><polygon class="cls-3" points="531 262.36 528 261.98 528 115.39 531 115.39 531 262.36"/><rect class="cls-2" x="587.06" y="176.37" width="3" height="5.02"/><rect class="cls-2" x="581.06" y="176.37" width="3" height="5.02"/><rect class="cls-4" x="574.06" y="176.37" width="3" height="5.02"/><rect class="cls-2" x="568.06" y="176.37" width="3" height="5.02"/><rect class="cls-3" x="561.06" y="176.37" width="3" height="5.02"/><rect class="cls-2" x="554.06" y="176.37" width="3" height="5.02"/><rect class="cls-2" x="587.06" y="186.37" width="3" height="5.02"/><rect class="cls-2" x="581.06" y="186.37" width="3" height="5.02"/><rect class="cls-2" x="574.06" y="186.37" width="3" height="5.02"/><rect class="cls-2" x="568.06" y="186.37" width="3" height="5.02"/><rect class="cls-2" x="561.06" y="186.37" width="3" height="5.02"/><rect class="cls-4" x="554.06" y="186.37" width="3" height="5.02"/><rect class="cls-4" x="587.06" y="196.37" width="3" height="5.02"/><rect class="cls-2" x="581.06" y="196.37" width="3" height="5.02"/><rect class="cls-3" x="574.06" y="196.37" width="3" height="5.02"/><rect class="cls-2" x="568.06" y="196.37" width="3" height="5.02"/><rect class="cls-4" x="561.06" y="196.37" width="3" height="5.02"/><rect class="cls-2" x="554.06" y="196.37" width="3" height="5.02"/><rect class="cls-2" x="587.06" y="206.37" width="3" height="5.02"/><rect class="cls-2" x="581.06" y="206.37" width="3" height="5.02"/><rect class="cls-2" x="574.06" y="206.37" width="3" height="5.02"/><rect class="cls-2" x="568.06" y="206.37" width="3" height="5.02"/><rect class="cls-2" x="561.06" y="206.37" width="3" height="5.02"/><rect class="cls-2" x="554.06" y="206.37" width="3" height="5.02"/><rect class="cls-2" x="587.06" y="216.37" width="3" height="5.02"/><rect class="cls-3" x="581.06" y="216.37" width="3" height="5.02"/><rect class="cls-2" x="574.06" y="216.37" width="3" height="5.02"/><rect class="cls-2" x="568.06" y="216.37" width="3" height="5.02"/><rect class="cls-4" x="561.06" y="216.37" width="3" height="5.02"/><rect class="cls-2" x="554.06" y="216.37" width="3" height="5.02"/><rect class="cls-2" x="587.06" y="226.37" width="3" height="5.02"/><rect class="cls-4" x="581.06" y="226.37" width="3" height="5.02"/><rect class="cls-2" x="574.06" y="226.37" width="3" height="5.02"/><rect class="cls-2" x="568.06" y="226.37" width="3" height="5.02"/><rect class="cls-2" x="561.06" y="226.37" width="3" height="5.02"/><rect class="cls-2" x="554.06" y="226.37" width="3" height="5.02"/><rect class="cls-2" x="587.06" y="236.37" width="3" height="5.02"/><rect class="cls-2" x="581.06" y="236.37" width="3" height="5.02"/><rect class="cls-2" x="574.06" y="236.37" width="3" height="5.02"/><rect class="cls-2" x="568.06" y="236.37" width="3" height="5.02"/><rect class="cls-2" x="561.06" y="236.37" width="3" height="5.02"/><rect class="cls-2" x="554.06" y="236.37" width="3" height="5.02"/><rect class="cls-2" x="587.06" y="246.37" width="3" height="5.02"/><rect class="cls-4" x="581.06" y="246.37" width="3" height="5.02"/><rect class="cls-2" x="574.06" y="246.37" width="3" height="5.02"/><rect class="cls-3" x="568.06" y="246.37" width="3" height="5.02"/><rect class="cls-2" x="561.06" y="246.37" width="3" height="5.02"/><rect class="cls-4" x="554.06" y="246.37" width="3" height="5.02"/><rect class="cls-2" x="587.06" y="256.37" width="3" height="5.02"/><rect class="cls-2" x="581.06" y="256.37" width="3" height="5.02"/><rect class="cls-2" x="574.06" y="256.37" width="3" height="5.02"/><rect class="cls-2" x="568.06" y="256.37" width="3" height="5.02"/><rect class="cls-2" x="561.06" y="256.37" width="3" height="5.02"/><rect class="cls-2" x="554.06" y="256.37" width="3" height="5.02"/><polygon class="cls-2" points="587.06 269.57 590.06 269.95 590.06 266.37 587.06 266.37 587.06 269.57"/><polygon class="cls-4" points="581.06 268.8 584.06 269.18 584.06 266.37 581.06 266.37 581.06 268.8"/><rect class="cls-2" x="577.94" y="128.4" width="3" height="4"/><rect class="cls-2" x="571.94" y="128.4" width="3" height="4"/><rect class="cls-2" x="566.94" y="128.4" width="3" height="4"/><rect class="cls-3" x="577.94" y="137.4" width="3" height="4"/><rect class="cls-2" x="571.94" y="137.4" width="3" height="4"/><rect class="cls-2" x="566.94" y="137.4" width="3" height="4"/><rect class="cls-2" x="577.94" y="145.4" width="3" height="4"/><rect class="cls-2" x="571.94" y="145.4" width="3" height="4"/><rect class="cls-4" x="566.94" y="145.4" width="3" height="4"/><rect class="cls-3" x="577.94" y="153.4" width="3" height="4"/><rect class="cls-2" x="571.94" y="153.4" width="3" height="4"/><rect class="cls-2" x="566.94" y="153.4" width="3" height="4"/><rect class="cls-2" x="624.04" y="174.27" width="15.85" height="6.04"/><rect class="cls-2" x="624.04" y="184.27" width="15.85" height="6.04"/><rect class="cls-2" x="624.04" y="195.27" width="15.85" height="6.04"/><rect class="cls-2" x="624.04" y="205.27" width="15.85" height="6.04"/><rect class="cls-2" x="624.04" y="216.27" width="15.85" height="6.04"/><rect class="cls-2" x="624.04" y="227.27" width="15.85" height="6.04"/><rect class="cls-2" x="624.04" y="237.27" width="15.85" height="6.04"/><rect class="cls-2" x="624.04" y="248.27" width="15.85" height="6.04"/><rect class="cls-2" x="624.04" y="258.27" width="15.85" height="6.04"/><rect class="cls-2" x="603.04" y="174.27" width="15.85" height="6.04"/><rect class="cls-2" x="603.04" y="184.27" width="15.85" height="6.04"/><rect class="cls-2" x="603.04" y="195.27" width="15.85" height="6.04"/><rect class="cls-2" x="603.04" y="205.27" width="15.85" height="6.04"/><rect class="cls-2" x="603.04" y="227.27" width="15.85" height="6.04"/><rect class="cls-2" x="603.04" y="237.27" width="15.85" height="6.04"/><rect class="cls-2" x="603.04" y="248.27" width="15.85" height="6.04"/><rect class="cls-2" x="603.04" y="258.27" width="15.85" height="6.04"/><polyline class="cls-2" points="603.04 268.27 618.89 268.27 618.89 273.66 603.04 271.62 603.04 268.27"/><polygon points="438.84 250.52 325 235.89 0 277.65 0 299.81 650 299.81 650 277.65 438.84 250.52"/><g id="crosswalk"><rect class="cls-6" x="321.99" y="255.37" width="6.08" height="10.01"/><polygon class="cls-6" points="328.07 245.38 321.99 245.38 321.99 236.28 325 235.89 328.07 236.28 328.07 245.38"/><rect class="cls-6" x="321.99" y="275.37" width="6.08" height="10.01"/><rect class="cls-6" x="321.99" y="295.37" width="6.08" height="4.44"/></g></svg>